<svg width="13" height="12" viewBox="0 0 13 12" fill="none" xmlns="http://www.w3.org/2000/svg">
<path d="M2.80348 3.38878L5.16413 0.933186C5.26406 0.829782 5.39512 0.777557 5.52618 0.777557C5.834 0.777557 6.03838 1.04129 6.03838 1.31495C6.03838 1.44551 5.99219 1.57816 5.88824 1.68626L4.2512 3.38878H2.80348ZM8.82988 3.38878H10.2776L7.91645 0.933186C7.81703 0.829782 7.68596 0.777557 7.5549 0.777557C7.24708 0.777557 7.0427 1.04129 7.0427 1.31495C7.0427 1.44551 7.0889 1.57816 7.19284 1.68626L8.82988 3.38878ZM12.5664 4.43327V5.47775H12.244C11.9759 5.47775 11.7308 5.63704 11.6128 5.88824L9.55349 11.2224H3.52759L1.46825 5.88719C1.35074 5.63652 1.10569 5.47775 0.837536 5.47775H0.514648V4.43327H12.5664ZM5.03407 6.52224C5.03407 6.23396 4.8091 6 4.53191 6C4.25472 6 4.02975 6.23396 4.02975 6.52224V9.13346C4.02975 9.42174 4.25472 9.65571 4.53191 9.65571C4.8091 9.65571 5.03407 9.42174 5.03407 9.13346V6.52224ZM7.0427 6.52224C7.0427 6.23396 6.81773 6 6.54054 6C6.26335 6 6.03838 6.23396 6.03838 6.52224V9.13346C6.03838 9.42174 6.26335 9.65571 6.54054 9.65571C6.81773 9.65571 7.0427 9.42174 7.0427 9.13346V6.52224ZM9.05133 6.52224C9.05133 6.23396 8.82687 6 8.54917 6C8.27148 6 8.04701 6.23396 8.04701 6.52224V9.13346C8.04701 9.42174 8.27148 9.65571 8.54917 9.65571C8.82687 9.65571 9.05133 9.42174 9.05133 9.13346V6.52224Z" fill="white"/>
</svg>
